# Blender v2.79 (sub 0) OBJ File: 'beech_tree.blend'
# www.blender.org
mtllib beech_tree.mtl
o Cylinder_Cylinder.001
v -0.060426 0.017118 -1.462151
v -0.060426 7.343257 -0.782117
v 1.214827 0.017118 -0.535625
v 0.568077 7.343257 -0.325483
v 0.727724 0.017118 0.963525
v 0.328010 7.343257 0.413366
v -0.848576 0.017118 0.963525
v -0.448863 7.343257 0.413366
v -1.335680 0.017118 -0.535625
v -0.688929 7.343257 -0.325483
v -0.219540 6.520934 -1.330611
v 3.035748 7.798686 0.866089
v -0.305526 8.082443 3.662729
v -4.334657 9.178098 0.509132
v -2.422129 10.273711 -4.930420
v 3.467012 9.855211 -4.015881
v 2.649765 12.381900 4.063536
v -2.561324 12.800400 3.842879
v -4.571401 14.154665 -1.039092
v -0.114995 14.237253 -4.109110
v 4.089396 13.445847 -0.635645
v -0.763559 16.512867 0.747513
v -0.328608 6.594827 1.385952
v 1.344810 6.840815 -0.257858
v 2.208635 7.717144 3.084328
v 3.083763 8.409325 -1.491163
v 1.490273 7.636826 -2.718966
v -2.480765 7.238832 -0.467667
v -2.747427 8.156664 2.467338
v -1.572706 7.882812 -3.257085
v -3.991529 9.444654 -2.175715
v 0.195637 9.842657 -4.976310
v 5.069877 10.929798 0.123310
v 4.300985 11.725813 -2.746232
v 1.357928 10.039808 5.249180
v 3.945734 10.285794 2.912763
v -3.891424 11.807096 2.573229
v -1.705086 10.285794 4.907065
v -2.799618 12.536560 -4.133756
v -4.691954 11.725813 -0.296312
v 1.932722 12.369817 -5.218559
v -1.130291 12.615803 -4.729582
v 3.974108 13.873156 2.002712
v -0.065707 13.496255 4.608763
v -3.541160 13.957315 2.021162
v -2.682956 14.896963 -2.850158
v 2.813867 14.637490 -3.015944
v 2.352234 15.111088 2.611452
v 3.300543 15.583347 -0.546872
v -1.262636 15.018785 3.990362
v -2.031524 15.814796 0.084856
v 0.853036 16.160753 -1.160188
vn 0.5861 0.0749 -0.8067
vn 0.9484 0.0749 0.3081
vn 0.0000 0.0749 0.9972
vn -0.9484 0.0749 0.3081
vn -0.5861 0.0749 -0.8067
vn 0.8174 -0.5616 -0.1288
vn 0.0743 -0.6652 0.7429
vn -0.8120 -0.2695 0.5176
vn -0.8720 0.0266 -0.4888
vn 0.2718 -0.2752 -0.9222
vn 0.8406 -0.4927 0.2250
vn -0.1362 -0.5514 0.8231
vn -0.9617 -0.0496 0.2697
vn -0.3354 0.2626 -0.9047
vn 0.7326 0.1272 -0.6686
vn 0.5858 0.4295 0.6873
vn -0.3232 0.1268 0.9378
vn -0.6052 0.7550 0.2524
vn -0.0457 0.8435 -0.5352
vn 0.8890 0.3408 -0.3058
vn 0.2267 0.9739 0.0123
vn 0.3032 0.8684 -0.3924
vn 0.0996 0.8181 -0.5663
vn -0.2757 0.8762 -0.3954
vn -0.2196 0.9440 -0.2465
vn -0.4898 0.8572 -0.1594
vn -0.5689 0.7767 0.2703
vn -0.5890 0.7613 0.2711
vn -0.7002 0.3693 0.6111
vn 0.1421 0.8905 0.4322
vn 0.2866 0.5453 0.7878
vn 0.3549 0.4690 0.8088
vn 0.2847 0.9319 0.2248
vn 0.6474 0.7010 0.2992
vn 0.9378 0.3467 -0.0152
vn 0.8703 0.4208 -0.2557
vn 0.7252 0.3136 -0.6130
vn 0.1880 0.6458 -0.7400
vn -0.2788 0.4905 -0.8256
vn -0.3171 0.4651 -0.8265
vn -0.7155 0.3607 -0.5983
vn -0.9348 0.1455 0.3241
vn -0.9414 0.2192 0.2564
vn -0.7633 0.2745 0.5849
vn -0.3491 0.2619 0.8997
vn -0.0986 0.1419 0.9850
vn 0.3022 0.2926 0.9072
vn 0.7798 0.1481 0.6083
vn 0.9161 0.0918 0.3904
vn 0.9334 0.3585 -0.0173
vn -0.1108 0.4150 -0.9031
vn -0.1566 0.0130 -0.9876
vn -0.0031 0.0871 -0.9962
vn -0.8846 -0.0957 -0.4564
vn -0.9006 0.0761 -0.4280
vn -0.9730 -0.1815 -0.1424
vn -0.7106 0.0549 0.7015
vn -0.7836 -0.2619 0.5634
vn -0.3596 -0.6215 0.6960
vn 0.6698 0.0065 0.7425
vn 0.6379 -0.3869 0.6658
vn 0.8037 -0.5248 0.2804
vn 0.9349 0.3151 -0.1631
vn 0.8320 -0.4354 -0.3437
vn 0.9278 -0.3667 -0.0692
vn 0.2207 -0.6313 -0.7435
vn 0.0704 -0.6930 -0.7175
vn -0.1121 -0.5962 -0.7950
vn -0.6146 -0.5871 -0.5268
vn -0.6145 -0.7011 -0.3619
vn -0.7525 -0.6390 -0.1596
vn -0.6699 -0.7238 0.1655
vn 0.6035 -0.7280 -0.3253
g Cylinder_Cylinder.001_Trunk
usemtl Trunk
s off
f 2//1 3//1 1//1
f 3//2 6//2 5//2
f 6//3 7//3 5//3
f 8//4 9//4 7//4
f 10//5 1//5 9//5
g Cylinder_Cylinder.001_Leaves
usemtl Leaves
f 12//6 26//6 33//6
f 13//7 25//7 35//7
f 14//8 29//8 37//8
f 15//9 31//9 39//9
f 16//10 32//10 41//10
f 12//11 33//11 36//11
f 13//12 35//12 38//12
f 14//13 37//13 40//13
f 15//14 39//14 42//14
f 16//15 41//15 34//15
f 17//16 43//16 48//16
f 18//17 44//17 50//17
f 19//18 45//18 51//18
f 20//19 46//19 52//19
f 21//20 47//20 49//20
f 49//21 52//21 22//21
f 49//22 47//22 52//22
f 47//23 20//23 52//23
f 52//24 51//24 22//24
f 52//25 46//25 51//25
f 46//26 19//26 51//26
f 51//27 50//27 22//27
f 51//28 45//28 50//28
f 45//29 18//29 50//29
f 50//30 48//30 22//30
f 50//31 44//31 48//31
f 44//32 17//32 48//32
f 48//33 49//33 22//33
f 48//34 43//34 49//34
f 43//35 21//35 49//35
f 34//36 47//36 21//36
f 34//37 41//37 47//37
f 41//38 20//38 47//38
f 42//39 46//39 20//39
f 42//40 39//40 46//40
f 39//41 19//41 46//41
f 40//42 45//42 19//42
f 40//43 37//43 45//43
f 37//44 18//44 45//44
f 38//45 44//45 18//45
f 38//46 35//46 44//46
f 35//47 17//47 44//47
f 36//48 43//48 17//48
f 36//49 33//49 43//49
f 33//50 21//50 43//50
f 41//51 42//51 20//51
f 41//52 32//52 42//52
f 32//53 15//53 42//53
f 39//54 40//54 19//54
f 39//55 31//55 40//55
f 31//56 14//56 40//56
f 37//57 38//57 18//57
f 37//58 29//58 38//58
f 29//59 13//59 38//59
f 35//60 36//60 17//60
f 35//61 25//61 36//61
f 25//62 12//62 36//62
f 33//63 34//63 21//63
f 33//64 26//64 34//64
f 26//65 16//65 34//65
f 27//66 32//66 16//66
f 27//67 30//67 32//67
f 30//68 15//68 32//68
f 30//69 31//69 15//69
f 30//70 28//70 31//70
f 28//71 14//71 31//71
f 28//72 29//72 14//72
f 26//73 27//73 16//73
g Cylinder_Cylinder.001_Trunk
usemtl Trunk
f 2//1 4//1 3//1
f 3//2 4//2 6//2
f 6//3 8//3 7//3
f 8//4 10//4 9//4
f 10//5 2//5 1//5
l 23 11
l 24 12
l 28 11
l 30 11
l 13 23
l 11 24
l 11 27
l 28 23
l 29 23
l 26 24
l 27 24
l 23 25
l 23 24
l 25 24
