# Blender v2.79 (sub 0) OBJ File: 'Tree.blend'
# www.blender.org
mtllib pine_tree.mtl
o Cylinder
v 0.068249 -0.076062 -0.182927
v 0.068249 7.469661 0.345808
v 0.577930 -0.076062 0.111338
v 0.120033 7.469661 0.375705
v 0.577930 -0.076062 0.699867
v 0.120033 7.469661 0.435499
v 0.068249 -0.076062 0.994131
v 0.068249 7.469661 0.465397
v -0.441432 -0.076062 0.699867
v 0.016466 7.469661 0.435499
v -0.441432 -0.076062 0.111338
v 0.016466 7.469661 0.375705
v 0.068249 1.573838 -0.060955
v 0.472300 1.573838 0.172324
v 0.472300 1.573838 0.638881
v 0.068249 1.573838 0.872159
v -0.335801 1.573838 0.638881
v -0.335801 1.573838 0.172324
v 0.068250 1.810990 -2.453113
v 2.543970 1.810990 -1.023755
v 2.543969 1.810990 1.834960
v 0.068249 1.810990 3.264317
v -2.407470 1.810990 1.834959
v -2.407470 1.810990 -1.023755
v 0.068249 3.549510 -0.313470
v 0.690984 3.549510 0.046066
v 0.690984 3.549510 0.765138
v 0.068249 3.549510 1.124674
v -0.554485 3.549510 0.765138
v -0.554485 3.549510 0.046066
v 0.068250 3.372904 -1.675146
v 1.870231 3.372904 -0.634772
v 1.870231 3.372904 1.445976
v 0.068249 3.372904 2.486351
v -1.733732 3.372904 1.445976
v -1.733732 3.372904 -0.634772
v 0.068249 5.147411 -0.245730
v 0.632320 5.147411 0.079936
v 0.632320 5.147411 0.731268
v 0.068249 5.147411 1.056934
v -0.495821 5.147411 0.731268
v -0.495821 5.147411 0.079936
v 0.068250 4.946259 -1.035099
v 1.315933 4.946259 -0.314748
v 1.315933 4.946259 1.125953
v 0.068249 4.946259 1.846303
v -1.179434 4.946259 1.125952
v -1.179434 4.946259 -0.314748
vn 0.4518 0.4283 -0.7826
vn 0.9037 0.4283 0.0000
vn 0.4518 0.4283 0.7826
vn -0.4518 0.4283 0.7826
vn 0.0000 1.0000 0.0000
vn -0.9037 0.4283 0.0000
vn -0.4518 0.4283 -0.7826
vn -0.4990 0.0639 -0.8643
vn -0.9980 0.0639 0.0000
vn -0.4990 0.0639 0.8643
vn 0.4990 0.0639 0.8643
vn 0.9980 0.0639 0.0000
vn 0.4990 0.0639 -0.8643
vn -0.3421 0.7293 -0.5926
vn -0.6842 0.7293 0.0000
vn -0.3421 0.7293 0.5926
vn 0.3421 0.7293 0.5926
vn 0.6842 0.7293 0.0000
vn 0.3421 0.7293 -0.5926
vn -0.4101 0.5721 -0.7103
vn -0.8202 0.5721 0.0000
vn -0.4101 0.5721 0.7103
vn 0.4101 0.5721 0.7103
vn 0.8202 0.5721 0.0000
vn 0.4101 0.5721 -0.7103
vn 0.0000 -1.0000 0.0000
vn 0.0569 -0.9935 -0.0985
vn 0.1137 -0.9935 0.0000
vn 0.0569 -0.9935 0.0985
vn -0.0569 -0.9935 0.0985
vn -0.1137 -0.9935 0.0000
vn -0.0569 -0.9935 -0.0985
vn -0.0741 -0.9890 0.1283
vn -0.1481 -0.9890 0.0000
vn -0.0741 -0.9890 -0.1283
vn 0.0741 -0.9890 -0.1283
vn 0.1481 -0.9890 0.0000
vn 0.0741 -0.9890 0.1283
vn -0.1411 -0.9593 0.2445
vn -0.2823 -0.9593 -0.0000
vn -0.1411 -0.9593 -0.2445
vn 0.1411 -0.9593 -0.2445
vn 0.2823 -0.9593 0.0000
vn 0.1411 -0.9593 0.2445
g Cylinder_Cylinder_Leaves
usemtl Leaves
s off
f 2//1 44//1 43//1
f 44//2 6//2 45//2
f 45//3 8//3 46//3
f 8//4 47//4 46//4
f 10//5 8//5 6//5
f 10//6 48//6 47//6
f 12//7 43//7 48//7
g Cylinder_Cylinder_Trunk
usemtl Trunk
f 11//8 13//8 1//8
f 17//9 11//9 9//9
f 16//10 9//10 7//10
f 15//11 7//11 5//11
f 3//12 15//12 5//12
f 13//13 3//13 1//13
g Cylinder_Cylinder_Leaves
usemtl Leaves
f 24//14 25//14 19//14
f 29//15 24//15 23//15
f 28//16 23//16 22//16
f 27//17 22//17 21//17
f 26//18 21//18 20//18
f 19//19 26//19 20//19
f 42//20 31//20 36//20
f 41//21 36//21 35//21
f 40//22 35//22 34//22
f 39//23 34//23 33//23
f 38//24 33//24 32//24
f 37//25 32//25 31//25
g Cylinder_Cylinder_Trunk
usemtl Trunk
f 9//26 11//26 3//26
f 14//27 19//27 20//27
g Cylinder_Cylinder_Leaves
usemtl Leaves
f 20//28 15//28 14//28
f 15//29 22//29 16//29
f 22//30 17//30 16//30
f 23//31 18//31 17//31
g Cylinder_Cylinder_Trunk
usemtl Trunk
f 19//32 18//32 24//32
g Cylinder_Cylinder_Leaves
usemtl Leaves
f 26//33 31//33 32//33
f 26//34 33//34 27//34
f 27//35 34//35 28//35
f 34//36 29//36 28//36
f 29//37 36//37 30//37
f 31//38 30//38 36//38
f 38//39 43//39 44//39
f 44//40 39//40 38//40
f 45//41 40//41 39//41
f 46//42 41//42 40//42
f 47//43 42//43 41//43
f 43//44 42//44 48//44
f 2//1 4//1 44//1
f 44//2 4//2 6//2
f 45//3 6//3 8//3
f 8//4 10//4 47//4
f 6//5 4//5 2//5
f 2//5 12//5 6//5
f 12//5 10//5 6//5
f 10//6 12//6 48//6
f 12//7 2//7 43//7
g Cylinder_Cylinder_Trunk
usemtl Trunk
f 11//8 18//8 13//8
f 17//9 18//9 11//9
f 16//10 17//10 9//10
f 15//11 16//11 7//11
f 3//12 14//12 15//12
f 13//13 14//13 3//13
g Cylinder_Cylinder_Leaves
usemtl Leaves
f 24//14 30//14 25//14
f 29//15 30//15 24//15
f 28//16 29//16 23//16
f 27//17 28//17 22//17
f 26//18 27//18 21//18
f 19//19 25//19 26//19
f 42//20 37//20 31//20
f 41//21 42//21 36//21
f 40//22 41//22 35//22
f 39//23 40//23 34//23
f 38//24 39//24 33//24
f 37//25 38//25 32//25
g Cylinder_Cylinder_Trunk
usemtl Trunk
f 11//26 1//26 3//26
f 3//26 5//26 7//26
f 7//26 9//26 3//26
f 14//27 13//27 19//27
g Cylinder_Cylinder_Leaves
usemtl Leaves
f 20//28 21//28 15//28
f 15//29 21//29 22//29
f 22//30 23//30 17//30
f 23//31 24//31 18//31
g Cylinder_Cylinder_Trunk
usemtl Trunk
f 19//32 13//32 18//32
g Cylinder_Cylinder_Leaves
usemtl Leaves
f 26//33 25//33 31//33
f 26//34 32//34 33//34
f 27//35 33//35 34//35
f 34//36 35//36 29//36
f 29//37 35//37 36//37
f 31//38 25//38 30//38
f 38//39 37//39 43//39
f 44//40 45//40 39//40
f 45//41 46//41 40//41
f 46//42 47//42 41//42
f 47//43 48//43 42//43
f 43//44 37//44 42//44
