# Blender v2.79 (sub 0) OBJ File: ''
# www.blender.org
mtllib dirt_rock1.mtl
o Cube
v 1.236623 -0.098019 -0.712857
v 1.150992 0.593768 0.677370
v 0.045817 -0.496465 1.308665
v 0.070771 -1.512575 -0.241547
v -0.062677 0.801084 -1.249787
v -0.070771 2.359649 0.241547
v -1.171634 0.636820 0.602569
v -1.150992 -0.249090 -0.677370
v 1.412562 0.223795 -0.044954
v 0.728571 -0.895396 -0.573695
v 0.662032 0.351998 -1.236704
v 0.750530 0.044136 1.191750
v 0.683991 1.767198 0.528741
v 0.066539 -1.075055 0.663009
v -0.662032 -0.007320 1.236704
v -0.683991 -0.946852 -0.528741
v -0.066539 1.895401 -0.663009
v -0.750530 0.300542 -1.191750
v -0.728571 1.715742 0.573695
v -1.412562 0.120883 0.044954
v -0.010980 -0.738724 -0.882723
v -0.673012 -0.918383 0.353981
v 0.010980 1.117774 0.882723
v 0.889372 0.776782 -0.645500
v -0.739551 1.245977 -0.309027
v 0.739550 -0.525808 0.309027
vn 0.6907 -0.5274 0.4948
vn -0.9108 0.3691 -0.1851
vn 0.7060 0.5974 -0.3804
vn -0.3816 0.4773 0.7915
vn -0.8335 -0.5518 0.0282
vn -0.1946 -0.6379 -0.7451
vn -0.3536 -0.4888 -0.7975
vn -0.0290 -0.0758 -0.9967
vn 0.2647 -0.4416 -0.8573
vn -0.3488 -0.8443 0.4068
vn -0.3988 -0.6893 0.6049
vn -0.7857 -0.4256 0.4490
vn 0.0247 0.1804 0.9833
vn 0.3646 0.4807 0.7975
vn 0.0232 0.4598 0.8877
vn 0.7566 0.6512 -0.0595
vn 0.8419 0.3648 -0.3976
vn 0.4170 0.6545 -0.6306
vn -0.7396 0.5974 -0.3101
vn -0.6762 0.3463 -0.6503
vn -0.8381 0.3774 -0.3938
vn 0.7271 -0.6364 0.2574
vn 0.8418 -0.5015 0.1995
vn 0.7494 -0.4386 0.4960
vn 0.5931 -0.6798 0.4315
vn -0.8664 0.4926 -0.0815
vn 0.6573 0.6717 -0.3417
vn -0.2822 0.1413 0.9489
vn -0.8150 -0.5795 0.0017
vn 0.1898 -0.6144 -0.7658
vn -0.3263 -0.4008 -0.8561
vn -0.0195 -0.2977 -0.9545
vn 0.4192 -0.4086 -0.8108
vn -0.6075 -0.7936 0.0332
vn -0.4831 -0.6062 0.6317
vn -0.8428 -0.1613 0.5134
vn 0.0199 0.2892 0.9571
vn 0.2727 0.2270 0.9349
vn -0.0004 0.4587 0.8886
vn 0.9264 0.3516 -0.1346
vn 0.7655 0.3456 -0.5427
vn 0.4958 0.4117 -0.7646
vn -0.7404 0.5972 -0.3086
vn -0.4890 0.5983 -0.6348
vn -0.8716 0.2296 -0.4332
vn 0.6941 -0.6468 0.3161
vn 0.7642 -0.6364 0.1053
vn 0.8789 -0.4056 0.2509
usemtl Dirt_Upper
s off
f 26//1 3//1 14//1
f 25//2 7//2 19//2
f 17//3 13//3 24//3
f 23//4 7//4 15//4
f 22//5 8//5 16//5
f 21//6 4//6 16//6
f 21//7 8//7 18//7
f 11//8 18//8 5//8
f 11//9 10//9 21//9
f 22//10 4//10 14//10
f 3//11 22//11 14//11
f 15//12 20//12 22//12
f 12//13 15//13 3//13
f 2//14 23//14 12//14
f 6//15 23//15 13//15
f 24//16 2//16 9//16
f 1//17 24//17 9//17
f 5//18 24//18 11//18
f 25//19 6//19 17//19
f 5//20 25//20 17//20
f 18//21 20//21 25//21
f 26//22 4//22 10//22
f 1//23 26//23 10//23
f 2//24 26//24 9//24
f 26//25 12//25 3//25
f 25//26 20//26 7//26
f 17//27 6//27 13//27
f 23//28 19//28 7//28
f 22//29 20//29 8//29
f 21//30 10//30 4//30
f 21//31 16//31 8//31
f 11//32 21//32 18//32
f 11//33 1//33 10//33
f 22//34 16//34 4//34
f 3//35 15//35 22//35
f 15//36 7//36 20//36
f 12//37 23//37 15//37
f 2//38 13//38 23//38
f 6//39 19//39 23//39
f 24//40 13//40 2//40
f 1//41 11//41 24//41
f 5//42 17//42 24//42
f 25//43 19//43 6//43
f 5//44 18//44 25//44
f 18//45 8//45 20//45
f 26//46 14//46 4//46
f 1//47 9//47 26//47
f 2//48 12//48 26//48
