# Blender v2.79 (sub 0) OBJ File: ''
# www.blender.org
mtllib stone_rock1.mtl
o Cube.001
v 0.165063 2.350176 1.112015
v 1.262026 2.221829 0.459587
v 0.668375 2.843036 0.342339
v -0.142966 0.655276 -0.897523
v 0.884474 1.223560 -0.998497
v 0.464948 0.120482 -0.467537
v -0.567519 0.285764 -0.024657
v 0.160263 0.027605 0.420728
v -0.914761 1.041387 0.599808
v 0.783677 0.648239 0.170786
v 1.374557 1.785906 -0.277162
v 0.580438 2.757208 -0.465053
v -0.299612 2.196505 -1.272039
v -0.258268 2.850074 -0.725970
v -0.802826 2.625053 -0.202150
v -0.174953 3.081959 0.123534
v -0.935349 1.660789 -1.082568
v -1.391970 1.521597 0.248643
v -1.216257 1.122376 -0.484024
v -0.714889 2.710882 0.605241
v 0.447915 1.792943 -1.345471
v 0.917936 1.646714 1.054049
v 0.282200 1.110998 1.243519
v 0.132160 -0.307041 -0.193623
v -0.465327 1.514559 1.316951
v -1.035973 1.883926 0.984365
vn 0.4673 0.5735 0.6728
vn 0.1823 -0.4819 -0.8571
vn -0.5461 -0.6683 0.5050
vn 0.8432 -0.5077 -0.1771
vn 0.2973 0.6010 -0.7419
vn -0.5170 0.8373 -0.1778
vn -0.6344 0.5670 -0.5255
vn -0.9400 0.1493 -0.3068
vn -0.8738 0.4844 0.0437
vn 0.3020 0.9440 -0.1332
vn 0.7288 0.6680 -0.1504
vn 0.6791 0.4418 -0.5861
vn 0.9231 -0.2523 0.2903
vn 0.6315 -0.5596 0.5366
vn 0.7307 -0.6130 0.3005
vn -0.3100 -0.6927 0.6513
vn -0.6396 -0.3934 0.6604
vn -0.7569 -0.6328 0.1633
vn -0.3844 -0.6141 -0.6893
vn -0.3271 -0.6170 -0.7157
vn -0.6157 -0.5723 -0.5417
vn -0.5018 -0.6816 -0.5326
vn -0.1514 -0.2931 -0.9440
vn -0.0164 0.8009 0.5986
vn -0.2772 0.4873 0.8281
vn 0.1606 0.1192 0.9798
vn 0.4919 0.4659 0.7355
vn 0.1494 -0.4285 -0.8911
vn -0.5227 -0.7384 0.4261
vn 0.9074 -0.4029 -0.1200
vn 0.2680 0.6292 -0.7295
vn -0.5803 0.8141 -0.0233
vn -0.7027 0.4819 -0.5235
vn -0.8912 0.3666 -0.2673
vn -0.8755 0.4357 0.2090
vn 0.1901 0.9422 -0.2758
vn 0.7747 0.5889 -0.2301
vn 0.7439 0.1779 -0.6441
vn 0.8940 -0.3583 0.2692
vn 0.6946 -0.4830 0.5331
vn 0.8099 -0.5815 0.0764
vn -0.3765 -0.5331 0.7577
vn -0.7595 -0.3573 0.5435
vn -0.8236 -0.5348 0.1891
vn 0.0695 -0.5759 -0.8145
vn -0.4944 -0.5180 -0.6980
vn -0.1718 -0.1409 -0.9750
vn 0.0816 0.8143 0.5747
vn -0.2506 0.4047 0.8794
vn 0.1883 0.1212 0.9746
usemtl Rock_Upper
s 1
f 1//1 2//1 3//1
f 4//2 5//2 6//2
f 7//3 8//3 9//3
f 10//4 5//4 11//4
f 12//5 13//5 14//5
f 15//6 16//6 14//6
f 15//7 13//7 17//7
f 18//8 17//8 19//8
f 18//9 20//9 15//9
f 12//10 16//10 3//10
f 2//11 12//11 3//11
f 11//12 21//12 12//12
f 22//13 11//13 2//13
f 23//14 10//14 22//14
f 24//15 10//15 8//15
f 9//16 23//16 25//16
f 26//17 9//17 25//17
f 19//18 9//18 18//18
f 4//19 24//20 7//21
f 19//22 4//22 7//22
f 17//23 21//23 4//23
f 1//24 16//24 20//24
f 26//25 1//25 20//25
f 23//26 1//26 25//26
f 1//27 22//27 2//27
f 4//28 21//28 5//28
f 7//29 24//29 8//29
f 10//30 6//30 5//30
f 12//31 21//31 13//31
f 15//32 20//32 16//32
f 15//33 14//33 13//33
f 18//34 15//34 17//34
f 18//35 26//35 20//35
f 12//36 14//36 16//36
f 2//37 11//37 12//37
f 11//38 5//38 21//38
f 22//39 10//39 11//39
f 23//40 8//40 10//40
f 24//41 6//41 10//41
f 9//42 8//42 23//42
f 26//43 18//43 9//43
f 19//44 7//44 9//44
f 4//19 6//45 24//20
f 19//46 17//46 4//46
f 17//47 13//47 21//47
f 1//48 3//48 16//48
f 26//49 25//49 1//49
f 23//50 22//50 1//50
