# Blender v2.79 (sub 0) OBJ File: 'UltraLP_cloud_2.blend'
# www.blender.org
mtllib UltraLP_cloud_2.mtl
o Icosphere
v 0.000000 4.370971 0.000000
v -1.710153 3.426732 -1.242484
v 0.653207 3.426732 -2.010398
v 2.113880 2.968104 0.000000
v 0.653207 3.426732 2.010398
v -1.710153 3.426732 1.242484
v -0.653207 1.195717 -2.010398
v 1.710153 1.456487 -1.242484
v 1.710153 1.195717 1.242484
v -0.653207 1.195717 2.010398
v -2.113880 1.195717 0.000000
v 0.000000 -0.110732 0.000000
v 1.648952 0.467541 -1.980497
v 0.783627 0.491630 -0.726835
v 1.823738 1.646900 -0.886202
v 1.783774 1.898033 -2.487041
v 0.797033 0.945055 -3.149790
v 0.178920 0.075862 -2.061920
v 0.383647 1.937017 -0.458564
v 1.001760 2.806210 -1.546434
v 0.397053 2.390442 -2.881519
v -0.594797 1.264285 -2.618795
v -0.603094 0.984039 -1.121313
v -0.468271 2.414531 -1.627857
v -0.162507 1.771053 0.830110
v -1.090476 0.948868 0.742688
v 0.337896 0.399170 1.041004
v 1.154243 1.554707 1.459669
v 0.243964 2.587913 1.989621
v -1.134931 2.070928 1.513737
v -0.325241 -0.148821 2.239720
v 1.053654 0.368163 2.330862
v 0.995602 1.720869 2.917134
v -0.419173 2.039922 3.188337
v -1.235520 0.884384 2.769672
v 0.081230 0.668038 3.399230
vn -0.1494 0.8754 -0.4597
vn -0.4834 0.8754 0.0000
vn 0.5410 0.8151 -0.2071
vn 0.5410 0.8151 0.2071
vn -0.1494 0.8754 0.4597
vn -0.9840 0.1781 0.0000
vn -0.3041 0.1781 -0.9359
vn 0.8119 0.2257 -0.5384
vn 0.8139 0.1976 0.5463
vn -0.3041 0.1781 0.9359
vn -0.7961 -0.1781 -0.5784
vn 0.3222 -0.1887 -0.9277
vn 0.9708 -0.2387 -0.0250
vn 0.3041 -0.1781 0.9359
vn -0.7961 -0.1781 0.5784
vn -0.4911 -0.7947 -0.3568
vn 0.2743 -0.7632 -0.5851
vn 0.6412 -0.7632 -0.0801
vn 0.1876 -0.7947 0.5774
vn -0.4911 -0.7947 0.3568
vn 0.6832 -0.5486 0.4821
vn 0.2433 -0.9519 0.1862
vn 0.9932 -0.1084 -0.0418
vn 0.7118 -0.2931 -0.6383
vn 0.2472 -0.8206 -0.5152
vn -0.4086 -0.8024 0.4350
vn 0.2636 -0.1050 0.9589
vn 0.7928 0.6049 0.0751
vn 0.3494 0.2636 -0.8992
vn -0.4024 -0.5900 -0.7000
vn -0.3494 -0.2636 0.8992
vn 0.3347 0.6342 0.6969
vn 0.4086 0.8024 -0.4350
vn -0.3392 0.0801 -0.9373
vn -0.8077 -0.5787 -0.1128
vn -0.7118 0.2931 0.6383
vn -0.2472 0.8206 0.5152
vn -0.2433 0.9519 -0.1862
vn -0.7055 0.5055 -0.4967
vn -0.9951 0.0983 0.0129
vn 0.1709 -0.0885 -0.9813
vn -0.3821 0.5130 -0.7686
vn 0.4339 0.0198 -0.9007
vn 0.4058 0.6741 -0.6172
vn -0.1246 0.8312 -0.5419
vn -0.9974 0.0093 -0.0711
vn -0.2171 -0.8368 -0.5026
vn 0.7975 -0.3996 -0.4521
vn 0.7520 0.6591 0.0067
vn -0.4010 0.8966 0.1880
vn -0.7670 -0.6372 -0.0752
vn 0.3552 -0.9088 -0.2190
vn 0.9941 -0.0045 0.1087
vn 0.2817 0.8041 0.5234
vn -0.8188 0.4486 0.3583
vn -0.4058 -0.6741 0.6172
vn 0.2785 -0.8284 0.4860
vn 0.6733 -0.2695 0.6885
vn 0.2330 0.2302 0.9448
vn -0.4339 -0.0198 0.9007
usemtl Material.002
s off
f 1//1 3//1 2//1
f 2//2 6//2 1//2
f 1//3 4//3 3//3
f 1//4 5//4 4//4
f 1//5 6//5 5//5
f 2//6 11//6 6//6
f 3//7 7//7 2//7
f 4//8 8//8 3//8
f 5//9 9//9 4//9
f 6//10 10//10 5//10
f 2//11 7//11 11//11
f 3//12 8//12 7//12
f 4//13 9//13 8//13
f 5//14 10//14 9//14
f 6//15 11//15 10//15
f 7//16 12//16 11//16
f 8//17 12//17 7//17
f 9//18 12//18 8//18
f 10//19 12//19 9//19
f 11//20 12//20 10//20
usemtl Material.003
f 13//21 15//21 14//21
f 14//22 18//22 13//22
f 13//23 16//23 15//23
f 13//24 17//24 16//24
f 13//25 18//25 17//25
f 14//26 23//26 18//26
f 15//27 19//27 14//27
f 16//28 20//28 15//28
f 17//29 21//29 16//29
f 18//30 22//30 17//30
f 14//31 19//31 23//31
f 15//32 20//32 19//32
f 16//33 21//33 20//33
f 17//34 22//34 21//34
f 18//35 23//35 22//35
f 19//36 24//36 23//36
f 20//37 24//37 19//37
f 21//38 24//38 20//38
f 22//39 24//39 21//39
f 23//40 24//40 22//40
usemtl Material.001
f 25//41 27//41 26//41
f 26//42 30//42 25//42
f 25//43 28//43 27//43
f 25//44 29//44 28//44
f 25//45 30//45 29//45
f 26//46 35//46 30//46
f 27//47 31//47 26//47
f 28//48 32//48 27//48
f 29//49 33//49 28//49
f 30//50 34//50 29//50
f 26//51 31//51 35//51
f 27//52 32//52 31//52
f 28//53 33//53 32//53
f 29//54 34//54 33//54
f 30//55 35//55 34//55
f 31//56 36//56 35//56
f 32//57 36//57 31//57
f 33//58 36//58 32//58
f 34//59 36//59 33//59
f 35//60 36//60 34//60
